<?xml version="1.0" encoding="utf-8"?>
<svg version="1.1" id="Layer_1" xmlns="http://www.w3.org/2000/svg" xmlns:xlink="http://www.w3.org/1999/xlink" x="0px" y="0px"
	 viewBox="0 0 24.02 24.75" enable-background="new 0 0 24.02 24.75" xml:space="preserve">
<g>
	<path fill="#BFBFBF" stroke="#BFBFBF" stroke-width="0.75" stroke-miterlimit="10" d="M20.65,24.38H3.38c-1.65,0-3-1.35-3-3V4.1
		c0-1.65,1.35-3,3-3h17.27c1.65,0,3,1.35,3,3v17.27C23.65,23.02,22.3,24.38,20.65,24.38z"/>
	<path fill="#EDEDED" stroke="#D6D6D6" stroke-width="0.75" stroke-miterlimit="10" d="M20.65,23.65H3.38c-1.65,0-3-1.35-3-3V3.38
		c0-1.65,1.35-3,3-3h17.27c1.65,0,3,1.35,3,3v17.27C23.65,22.3,22.3,23.65,20.65,23.65z"/>
	<g>
		<defs>
			<path id="SVGID_1_" d="M20.65,23.65H3.38c-1.65,0-3-1.35-3-3V3.38c0-1.65,1.35-3,3-3h17.27c1.65,0,3,1.35,3,3v17.27
				C23.65,22.3,22.3,23.65,20.65,23.65z"/>
		</defs>
		<clipPath id="SVGID_2_">
			<use xlink:href="#SVGID_1_"  overflow="visible"/>
		</clipPath>
		<g clip-path="url(#SVGID_2_)">
			<defs>
				<rect id="SVGID_3_" x="-0.55" y="4.33" width="24.4" height="24.4"/>
			</defs>
			<clipPath id="SVGID_4_">
				<use xlink:href="#SVGID_3_"  overflow="visible"/>
			</clipPath>

				<path clip-path="url(#SVGID_4_)" fill="none" stroke="#ED701B" stroke-width="2.25" stroke-linecap="round" stroke-linejoin="round" stroke-miterlimit="10" d="
				M0.8,31.45c0,0-1.86-21.01,9.19-22.09c0,0-3.11,8.83,3.69,11.25c0,0,2.73-5.34,6.93-5.66c0,0,1.41,6.26,8.66,6"/>
		</g>
	</g>
	<g>
		<path fill="#333435" stroke="#333435" stroke-width="0.75" stroke-miterlimit="10" d="M23.65,7.65V2.56c0-1.2-0.98-2.18-2.18-2.18
			H2.56c-1.2,0-2.18,0.98-2.18,2.18v5.09H23.65z"/>
	</g>
	<g>
		<path fill="#FFFFFF" d="M8.34,6.37H5.95V2.22h2.39v0.72H6.83v0.91h1.41v0.72H6.83v1.07h1.51V6.37z"/>
		<path fill="#FFFFFF" d="M10.14,6.43c-0.37,0-0.67-0.14-0.88-0.43S8.94,5.3,8.94,4.79c0-0.52,0.11-0.93,0.33-1.22
			s0.52-0.44,0.9-0.44c0.4,0,0.7,0.16,0.91,0.47h0.03c-0.04-0.24-0.07-0.45-0.07-0.63V1.95h0.87v4.42h-0.66l-0.17-0.41h-0.04
			C10.85,6.27,10.55,6.43,10.14,6.43z M10.45,5.74c0.22,0,0.38-0.06,0.49-0.19c0.1-0.13,0.16-0.35,0.17-0.66V4.8
			c0-0.34-0.05-0.59-0.16-0.73c-0.11-0.15-0.28-0.22-0.51-0.22c-0.19,0-0.34,0.08-0.45,0.25C9.88,4.25,9.82,4.49,9.82,4.8
			c0,0.31,0.05,0.55,0.16,0.7C10.09,5.66,10.25,5.74,10.45,5.74z"/>
		<path fill="#FFFFFF" d="M16.33,4.26c0,0.68-0.19,1.21-0.58,1.57c-0.39,0.36-0.95,0.55-1.69,0.55h-1.18V2.22h1.3
			c0.68,0,1.2,0.18,1.58,0.54C16.15,3.11,16.33,3.61,16.33,4.26z M15.42,4.28c0-0.89-0.39-1.34-1.18-1.34h-0.47v2.7h0.38
			C14.99,5.65,15.42,5.19,15.42,4.28z"/>
		<path fill="#FFFFFF" d="M17.19,6.37V2.22h0.88v4.15H17.19z"/>
	</g>
</g>
</svg>
