<?xml version="1.0" encoding="UTF-8" standalone="no"?>
<svg viewBox="0 0 20 20" version="1.1" xmlns="http://www.w3.org/2000/svg" xmlns:xlink="http://www.w3.org/1999/xlink" xmlns:sketch="http://www.bohemiancoding.com/sketch/ns">
    <!-- Generator: Sketch 3.4.4 (17249) - http://www.bohemiancoding.com/sketch -->
    <title>Artboard 1</title>
    <desc>Created with Sketch.</desc>
    <defs></defs>
    <g id="Page-1" stroke="none" stroke-width="1" fill="none" fill-rule="evenodd" sketch:type="MSPage">
        <g id="Artboard-1" sketch:type="MSArtboardGroup">
            <g id="info" sketch:type="MSLayerGroup">
                <g id="Group" sketch:type="MSShapeGroup">
                    <circle id="Oval" fill="#E88040" cx="10" cy="10" r="10"></circle>
                    <path d="M11.9166667,14.75 C11.8,14.75 11.0833333,14.7 9.76666667,14.7 C8.88333333,14.7 8.28333333,14.75 8.11666667,14.75 C8.03333333,14.75 8,14.7166667 8,14.6 L8,14.3 C8,14.2 8.05,14.1833333 8.15,14.1833333 L8.71666667,14.1833333 C8.88333333,14.1833333 9,14.1166667 9,13.8833333 C9.01666667,13.4 9.01666667,12.9333333 9.01666667,12.5 L8.98333333,10.3666667 C8.98333333,9.93333333 8.9,9.63333333 8.25,9.4 C8.08333333,9.33333333 8.06666667,9.28333333 8.06666667,9.18333333 L8.06666667,9.01666667 C8.06666667,8.96666667 8.1,8.93333333 8.23333333,8.9 L10.5166667,8.16666667 C10.6833333,8.1 10.8166667,8.06666667 10.9333333,8.06666667 C11.05,8.06666667 11.1,8.15 11.0833333,8.25 C11.05,8.51666667 11.05,9.46666667 11.05,10.8166667 L11.05,12.45 C11.05,13.05 11.05,13.6 11.0666667,13.7666667 C11.1,14.0666667 11.1833333,14.1666667 11.35,14.1666667 L11.9,14.1666667 C12.0166667,14.1666667 12.05,14.2166667 12.05,14.3 L12.05,14.5833333 C12.05,14.7 12.0166667,14.75 11.9166667,14.75 L11.9166667,14.75 Z M9.81666667,6.9 C9.16666667,6.91666667 8.7,6.41666667 8.7,5.8 C8.7,5.3 9.21666667,4.78333333 9.9,4.78333333 C10.65,4.78333333 11.0333333,5.3 11.0333333,5.75 C11.0166667,6.26666667 10.6666667,6.88333333 9.81666667,6.9 L9.81666667,6.9 Z" id="Shape" fill="#FFFFFF"></path>
                </g>
            </g>
        </g>
    </g>
</svg>
