<svg xmlns="http://www.w3.org/2000/svg" viewbox="0 0 9.53 12"><path fill="#999999" d="M8.7 2.66H7.88V1.33H8.7V2.66zM8.7 5.33L8.7 5.33l-0.82 0V4H8.7V5.33zM8.7 6.67V8H7.88V6.67L8.7 6.67 8.7 6.67zM8.7 10.67H7.88V9.33H8.7V10.67zM7.06 5.33H2.47v-4h4.59L7.06 5.33 7.06 5.33zM7.06 10.67H2.47v-4h4.59L7.06 10.67 7.06 10.67zM1.65 2.66H0.82V1.33h0.82V2.66zM1.65 5.33L1.65 5.33l-0.82 0V4h0.82V5.33zM1.65 6.67V8H0.82V6.67L1.65 6.67 1.65 6.67zM1.65 10.67H0.82V9.33h0.82V10.67zM9.04 0H0.49C0.22 0 0 0.22 0 0.49v11.02C0 11.78 0.22 12 0.49 12h8.55c0.27 0 0.49-0.22 0.49-0.49V0.49C9.53 0.22 9.31 0 9.04 0z"/></svg>
