<svg xmlns="http://www.w3.org/2000/svg" viewbox="0 0 12 12"><path fill="#FFF" d="M8.53 8.15C8.45 8.27 8.37 8.28 8.31 8.28c-0.14 0-0.33-0.09-0.54-0.25C7.94 8 8.1 7.99 8.23 7.99c0.23 0 0.33 0.04 0.36 0.05C8.58 8.06 8.57 8.1 8.53 8.15zM5.15 8.28c0.27-0.63 0.51-1.33 0.7-1.98 0.29 0.53 0.65 1.04 1 1.45C6.29 7.88 5.7 8.07 5.15 8.28zM5.63 4.15C5.64 4.1 5.67 4.09 5.69 4.08c0.01 0 0.02-0.01 0.03-0.01 0.04 0.06 0.09 0.29 0 0.85C5.61 4.6 5.56 4.3 5.63 4.15zM3.54 10.08C3.42 9.99 3.43 9.93 3.43 9.9c0.02-0.15 0.24-0.4 0.8-0.72C3.81 9.97 3.58 10.07 3.54 10.08zM8.23 7.55c-0.24 0-0.54 0.03-0.88 0.09C6.87 7.14 6.37 6.39 6.02 5.66 6.37 4.19 6.14 3.89 6.06 3.8c-0.08-0.1-0.2-0.16-0.33-0.16 -0.05 0-0.11 0.01-0.17 0.03C5.4 3.71 5.29 3.82 5.22 3.97 5.04 4.41 5.29 5.14 5.55 5.71 5.33 6.6 4.95 7.66 4.56 8.53c-0.99 0.45-1.52 0.9-1.57 1.33 -0.02 0.16 0.02 0.38 0.29 0.59 0.08 0.06 0.16 0.09 0.25 0.09 0.23 0 0.46-0.18 0.73-0.55 0.2-0.27 0.41-0.65 0.62-1.11 0.7-0.31 1.57-0.58 2.31-0.74 0.41 0.4 0.78 0.6 1.1 0.6 0.23 0 0.44-0.11 0.58-0.31 0.15-0.21 0.19-0.4 0.1-0.57C8.89 7.65 8.64 7.55 8.23 7.55z"/><path fill="#FFF" d="M9.7 11c0 0.28-0.22 0.5-0.5 0.5H2.8c-0.28 0-0.5-0.22-0.5-0.5V1c0-0.28 0.22-0.5 0.5-0.5h3.53c0.14 0 0.3 0.03 0.46 0.08v1.5c0 0.69 0.56 1.25 1.25 1.25H9.6c0.06 0.19 0.1 0.38 0.1 0.53V11zM7.3 0.79c0.15 0.08 0.29 0.18 0.39 0.28l1.45 1.45C9.22 2.6 9.3 2.71 9.37 2.83H8.05C7.63 2.83 7.3 2.5 7.3 2.08V0.79zM9.49 2.16L8.04 0.71C7.65 0.32 6.88 0 6.33 0H2.8c-0.55 0-1 0.45-1 1v10c0 0.55 0.45 1 1 1h6.4c0.55 0 1-0.45 1-1V3.87C10.2 3.32 9.88 2.55 9.49 2.16z"/></svg>
