<?xml version="1.0" encoding="UTF-8" standalone="no"?>
<svg viewBox="0 0 120 61" version="1.1" xmlns="http://www.w3.org/2000/svg" xmlns:xlink="http://www.w3.org/1999/xlink" xmlns:sketch="http://www.bohemiancoding.com/sketch/ns">
    <!-- Generator: Sketch 3.4.4 (17249) - http://www.bohemiancoding.com/sketch -->
    <title>Artboard 1</title>
    <desc>Created with Sketch.</desc>
    <defs>
        <linearGradient x1="-0.124288212%" y1="49.9999314%" x2="100.038939%" y2="49.9999314%" id="linearGradient-1">
            <stop stop-color="#46A7D7" offset="0%"></stop>
            <stop stop-color="#006396" offset="100%"></stop>
        </linearGradient>
        <linearGradient x1="0.0558438882%" y1="49.9999685%" x2="99.7093011%" y2="49.9999685%" id="linearGradient-2">
            <stop stop-color="#795EA7" offset="0%"></stop>
            <stop stop-color="#66298A" offset="100%"></stop>
        </linearGradient>
        <linearGradient x1="3.71698113e-05%" y1="50%" x2="99.8865734%" y2="50%" id="linearGradient-3">
            <stop stop-color="#6FB244" offset="0%"></stop>
            <stop stop-color="#3A9600" offset="100%"></stop>
        </linearGradient>
        <linearGradient x1="50%" y1="33.4038306%" x2="50%" y2="304.400605%" id="linearGradient-4">
            <stop stop-color="#1D548F" offset="0%"></stop>
            <stop stop-color="#1C75BC" offset="100%"></stop>
        </linearGradient>
        <linearGradient x1="49.9998635%" y1="153.360893%" x2="49.9998635%" y2="3.28493813%" id="linearGradient-5">
            <stop stop-color="#4FA6D2" offset="0%"></stop>
            <stop stop-color="#FFFFFF" offset="100%"></stop>
        </linearGradient>
    </defs>
    <g id="Page-1" stroke="none" stroke-width="1" fill="none" fill-rule="evenodd" sketch:type="MSPage">
        <g id="Artboard-1" sketch:type="MSArtboardGroup">
            <g id="Search-Secondary-Revised" sketch:type="MSLayerGroup">
                <g id="Group" sketch:type="MSShapeGroup">
                    <g>
                        <path d="M1.51456311,51.6153846 L40.3106796,41.9961538 L40.3106796,22.1711538 L1.51456311,11.3788462 L1.51456311,51.6153846 Z" id="Shape" fill="url(#linearGradient-1)"></path>
                        <path d="M18.7572816,55.0173077 L41.7087379,48.4480769 L41.8252427,14.0769231 L18.7572816,5.74807692 L18.7572816,55.0173077 Z" id="Shape" fill="url(#linearGradient-2)"></path>
                        <rect id="Rectangle-path" fill="#A98DFF" x="16.6601942" y="5.74807692" width="2.21359223" height="49.2692308"></rect>
                        <rect id="Rectangle-path" fill="#88E1EA" x="0" y="11.3788462" width="1.51456311" height="40.2365385"></rect>
                        <g transform="translate(36.116505, 0.000000)">
                            <path d="M3.14563107,57.95 L32.8543689,47.3923077 L34.0194175,13.1384615 L3.14563107,0 L3.14563107,57.95 Z" id="Shape" fill="url(#linearGradient-3)"></path>
                            <rect id="Rectangle-path" fill="#95E548" x="0.815533981" y="0" width="2.44660194" height="57.8326923"></rect>
                        </g>
                    </g>
                    <ellipse id="Oval" fill="url(#linearGradient-4)" cx="90.2912621" cy="31.6730769" rx="28.6601942" ry="29.0923077"></ellipse>
                    <g transform="translate(73.398058, 14.076923)" id="Shape">
                        <g>
                            <path d="M34.8349515,33.55 L34.6019417,33.3153846 L34.6019417,33.3153846 L28.1941748,25.8076923 L29.1262136,24.6346154 C30.5242718,22.5230769 31.4563107,19.9423077 31.6893204,17.1269231 C32.2718447,8.56346154 25.9805825,1.17307692 17.4757282,0.469230769 L17.3592233,0.469230769 C8.85436893,-0.117307692 1.51456311,6.33461538 0.932038835,14.7807692 C0.349514563,23.3442308 6.6407767,30.8519231 15.1456311,31.4384615 L15.2621359,31.4384615 C18.0582524,31.6730769 20.7378641,31.0865385 23.184466,29.7961538 L24.4660194,28.975 L30.8737864,36.3653846 L30.8737864,36.3653846 L31.1067961,36.6 C31.8058252,37.4211538 32.9708738,37.4211538 33.6699029,36.8346154 L34.6019417,36.0134615 C35.4174757,35.4269231 35.5339806,34.3711538 34.8349515,33.55 L34.8349515,33.55 Z M15.4951456,26.8634615 C9.55339806,26.3942308 5.00970874,21.1153846 5.47572816,15.1326923 C5.94174757,9.15 11.0679612,4.575 17.0097087,5.04423077 L17.1262136,5.04423077 C20.038835,5.27884615 22.7184466,6.56923077 24.5825243,8.79807692 C26.4466019,11.0269231 27.3786408,13.8423077 27.1456311,16.775 C26.9126214,19.7076923 25.631068,22.2884615 23.4174757,24.2826923 C21.2038835,26.1596154 18.407767,27.0980769 15.4951456,26.8634615 L15.4951456,26.8634615 L15.4951456,26.8634615 Z" fill="#000000"></path>
                            <path d="M34.8349515,33.55 L34.6019417,33.3153846 L34.6019417,33.3153846 L28.1941748,25.8076923 L29.1262136,24.6346154 C30.5242718,22.5230769 31.4563107,19.9423077 31.6893204,17.1269231 C32.2718447,8.56346154 25.9805825,1.17307692 17.4757282,0.469230769 L17.3592233,0.469230769 C8.85436893,-0.117307692 1.51456311,6.33461538 0.932038835,14.7807692 C0.349514563,23.3442308 6.6407767,30.8519231 15.1456311,31.4384615 L15.2621359,31.4384615 C18.0582524,31.6730769 20.7378641,31.0865385 23.184466,29.7961538 L24.4660194,28.975 L30.8737864,36.3653846 L30.8737864,36.3653846 L31.1067961,36.6 C31.8058252,37.4211538 32.9708738,37.4211538 33.6699029,36.8346154 L34.6019417,36.0134615 C35.4174757,35.4269231 35.5339806,34.3711538 34.8349515,33.55 L34.8349515,33.55 Z M15.4951456,26.8634615 C9.55339806,26.3942308 5.00970874,21.1153846 5.47572816,15.1326923 C5.94174757,9.15 11.0679612,4.575 17.0097087,5.04423077 L17.1262136,5.04423077 C20.038835,5.27884615 22.7184466,6.56923077 24.5825243,8.79807692 C26.4466019,11.0269231 27.3786408,13.8423077 27.1456311,16.775 C26.9126214,19.7076923 25.631068,22.2884615 23.4174757,24.2826923 C21.2038835,26.1596154 18.407767,27.0980769 15.4951456,26.8634615 L15.4951456,26.8634615 L15.4951456,26.8634615 Z" stroke="#000000"></path>
                        </g>
                        <g transform="translate(0.000000, 1.173077)">
                            <path d="M34.8349515,33.55 L34.6019417,33.3153846 L34.6019417,33.3153846 L28.1941748,25.8076923 L29.1262136,24.6346154 C30.5242718,22.5230769 31.4563107,19.9423077 31.6893204,17.1269231 C32.2718447,8.56346154 25.9805825,1.17307692 17.4757282,0.469230769 L17.3592233,0.469230769 C8.85436893,-0.117307692 1.51456311,6.33461538 0.932038835,14.7807692 C0.349514563,23.3442308 6.6407767,30.8519231 15.1456311,31.4384615 L15.2621359,31.4384615 C18.0582524,31.6730769 20.7378641,31.0865385 23.184466,29.7961538 L24.4660194,28.975 L30.8737864,36.3653846 L30.8737864,36.3653846 L31.1067961,36.6 C31.8058252,37.4211538 32.9708738,37.4211538 33.6699029,36.8346154 L34.6019417,36.0134615 C35.4174757,35.4269231 35.5339806,34.3711538 34.8349515,33.55 L34.8349515,33.55 Z M15.4951456,26.8634615 C9.55339806,26.3942308 5.00970874,21.1153846 5.47572816,15.1326923 C5.94174757,9.15 11.0679612,4.575 17.0097087,5.04423077 L17.1262136,5.04423077 C20.038835,5.27884615 22.7184466,6.56923077 24.5825243,8.79807692 C26.4466019,11.0269231 27.3786408,13.8423077 27.1456311,16.775 C26.9126214,19.7076923 25.631068,22.2884615 23.4174757,24.2826923 C21.2038835,26.1596154 18.407767,27.0980769 15.4951456,26.8634615 L15.4951456,26.8634615 L15.4951456,26.8634615 Z" fill="url(#linearGradient-5)"></path>
                            <path d="M34.8349515,33.55 L34.6019417,33.3153846 L34.6019417,33.3153846 L28.1941748,25.8076923 L29.1262136,24.6346154 C30.5242718,22.5230769 31.4563107,19.9423077 31.6893204,17.1269231 C32.2718447,8.56346154 25.9805825,1.17307692 17.4757282,0.469230769 L17.3592233,0.469230769 C8.85436893,-0.117307692 1.51456311,6.33461538 0.932038835,14.7807692 C0.349514563,23.3442308 6.6407767,30.8519231 15.1456311,31.4384615 L15.2621359,31.4384615 C18.0582524,31.6730769 20.7378641,31.0865385 23.184466,29.7961538 L24.4660194,28.975 L30.8737864,36.3653846 L30.8737864,36.3653846 L31.1067961,36.6 C31.8058252,37.4211538 32.9708738,37.4211538 33.6699029,36.8346154 L34.6019417,36.0134615 C35.4174757,35.4269231 35.5339806,34.3711538 34.8349515,33.55 L34.8349515,33.55 Z M15.4951456,26.8634615 C9.55339806,26.3942308 5.00970874,21.1153846 5.47572816,15.1326923 C5.94174757,9.15 11.0679612,4.575 17.0097087,5.04423077 L17.1262136,5.04423077 C20.038835,5.27884615 22.7184466,6.56923077 24.5825243,8.79807692 C26.4466019,11.0269231 27.3786408,13.8423077 27.1456311,16.775 C26.9126214,19.7076923 25.631068,22.2884615 23.4174757,24.2826923 C21.2038835,26.1596154 18.407767,27.0980769 15.4951456,26.8634615 L15.4951456,26.8634615 L15.4951456,26.8634615 Z" stroke="#FFFFFF"></path>
                        </g>
                    </g>
                </g>
            </g>
        </g>
    </g>
</svg>
